<mxfile host="app.diagrams.net" modified="2024-05-31T18:59:38.533Z" agent="Mozilla/5.0 (Windows NT 10.0; Win64; x64; rv:126.0) Gecko/20100101 Firefox/126.0" version="24.4.13" etag="Kxx0m50ggbbIvNQAODe7" type="github">
  <diagram name="Страница — 1" id="UW37BrR--T6sH_CBTLFx">
    <mxGraphModel>
      <root>
        <mxCell id="0" />
        <mxCell id="1" parent="0" />
      </root>
    </mxGraphModel>
  </diagram>
</mxfile>
